<?xml version="1.0" encoding="UTF-8" standalone="no"?>
<!-- Generator: Adobe Illustrator 25.2.1, SVG Export Plug-In . SVG Version: 6.00 Build 0)  -->

<svg
   version="1.1"
   id="Layer_1"
   x="0px"
   y="0px"
   viewBox="0 0 480 180"
   xml:space="preserve"
   sodipodi:docname="boxcutter.svg"
   inkscape:version="1.4.2 (ebf0e940d0, 2025-05-08)"
   width="480"
   height="180"
   xmlns:inkscape="http://www.inkscape.org/namespaces/inkscape"
   xmlns:sodipodi="http://sodipodi.sourceforge.net/DTD/sodipodi-0.dtd"
   xmlns="http://www.w3.org/2000/svg"
   xmlns:svg="http://www.w3.org/2000/svg"><defs
   id="defs1120" /><sodipodi:namedview
   id="namedview1118"
   pagecolor="#ffffff"
   bordercolor="#666666"
   borderopacity="1.0"
   inkscape:pageshadow="2"
   inkscape:pageopacity="0.0"
   inkscape:pagecheckerboard="0"
   showgrid="false"
   inkscape:zoom="1.5740191"
   inkscape:cx="285.89233"
   inkscape:cy="53.04891"
   inkscape:window-width="1710"
   inkscape:window-height="1182"
   inkscape:window-x="26"
   inkscape:window-y="23"
   inkscape:window-maximized="0"
   inkscape:current-layer="Layer_1"
   showguides="true"
   inkscape:guide-bbox="true"
   inkscape:showpageshadow="2"
   inkscape:deskcolor="#d1d1d1"><sodipodi:guide
     position="268.8,101.8"
     orientation="0,-1"
     id="guide20038"
     inkscape:locked="false" /><sodipodi:guide
     position="163.1,101.8"
     orientation="1,0"
     id="guide20120"
     inkscape:locked="false" /><sodipodi:guide
     position="208.32937,35.771972"
     orientation="0,-1"
     id="guide25439"
     inkscape:locked="false" /></sodipodi:namedview>
<style
   type="text/css"
   id="style1045">
	.st0{enable-background:new    ;}
	.st1{fill:#EE0000;}
	.st2{fill:#FFFAFA;}
</style>




<g
   class="st0"
   id="g1061"
   style="display:inline">







<text
   xml:space="preserve"
   style="font-size:64.6169px;line-height:0.9;font-family:sans-serif;letter-spacing:0px;stroke-width:1.61542"
   x="158.07626"
   y="78.106651"
   id="text3348"><tspan
     sodipodi:role="line"
     id="tspan3346"
     x="158.07626"
     y="78.106651"
     style="font-style:normal;font-variant:normal;font-weight:800;font-stretch:normal;line-height:0.9;font-family:Overpass;-inkscape-font-specification:'Overpass Ultra-Bold';stroke-width:1.61542">PKO</tspan><tspan
     sodipodi:role="line"
     x="158.07626"
     y="141.90956"
     id="tspan3350"
     style="font-style:normal;font-variant:normal;font-weight:normal;font-stretch:normal;line-height:0.9;font-family:Overpass;-inkscape-font-specification:'Overpass Bold';stroke-width:1.61542">Boxcutter</tspan></text><path
   d="M 66.612035,86.846641 53.881018,99.57765 47.818271,81.39049 54.486542,74.721148 52.183406,72.41694 c -0.401897,-0.400825 -0.401897,-1.053506 0,-1.454331 L 105.29166,17.854364 c 0.40082,-0.401896 1.0535,-0.401896 1.45433,0 l 16.73284,16.732838 c 0.40189,0.400825 0.40189,1.053505 0,1.45433 L 70.370574,89.149777 c -0.400825,0.401897 -1.053506,0.401897 -1.454331,0 z M 89.826663,57.327056 c 0.401897,0.400825 1.053506,0.400825 1.455403,0 L 108.01491,40.594219 c 0.40083,-0.401897 0.40083,-1.053506 0,-1.455402 l -5.82054,-5.820537 c -0.4019,-0.400825 -1.05351,-0.400825 -1.4554,0 L 84.006127,50.051117 c -0.400825,0.401897 -0.400825,1.053506 0,1.455402 z M 83.642812,55.508339 64.73223,74.41785 c -0.400825,0.401896 -0.400825,1.053505 0,1.455402 l 0.727701,0.727701 c 0.401897,0.400825 1.053506,0.400825 1.455402,0 L 85.824844,57.690371 Z M 108.37823,35.138068 110.93,32.586292 c 0.40083,-0.401897 0.40083,-1.053505 0,-1.455402 l -0.7277,-0.727701 c -0.4019,-0.400825 -1.0535,-0.400825 -1.4554,0 l -2.55178,2.551776 z m -51.708585,41.765111 -5.320041,5.320041 3.879643,11.641074 9.199685,-9.200756 z M 50.214648,143.92883 H 33.238529 c -0.568014,0 -1.028856,-0.46084 -1.028856,-1.02886 v -39.09651 c 0,-0.56802 0.460842,-1.02886 1.028856,-1.02886 h 16.976119 z m 7.716417,-41.15423 h 76.135325 c 0.56802,0 1.02886,0.46084 1.02886,1.02886 v 39.09651 c 0,0.56802 -0.46084,1.02886 -1.02886,1.02886 H 57.931065 Z m 66.875625,24.17811 c 0,-0.56801 -0.46084,-1.02885 -1.02885,-1.02885 h -13.37513 c -0.56801,0 -1.02885,0.46084 -1.02885,1.02885 v 5.65871 c 0,0.56801 0.46084,1.02885 1.02885,1.02885 h 13.37513 c 0.56801,0 1.02885,-0.46084 1.02885,-1.02885 z"
   id="path1"
   style="clip-rule:evenodd;fill:#005ddd;fill-opacity:1;fill-rule:evenodd;stroke-width:1.07172;stroke-linejoin:round;stroke-miterlimit:2" /></g></svg>
